<?xml version="1.0" encoding="UTF-8"?>
<svg width="19px" height="10px" viewBox="0 0 19 10" version="1.1" xmlns="http://www.w3.org/2000/svg" xmlns:xlink="http://www.w3.org/1999/xlink">
    <!-- Generator: sketchtool 53.2 (72643) - https://sketchapp.com -->
    <title>D42EB741-7452-4F24-8C5C-37F7D0C00BC8@1x</title>
    <desc>Created with sketchtool.</desc>
    <g id="Page-1" stroke="none" stroke-width="1" fill="none" fill-rule="evenodd">
        <g id="1.5-UI-Style-Guide" transform="translate(-864.000000, -507.000000)" fill="#FFFFFF" fill-rule="nonzero">
            <g id="menu-copy" transform="translate(585.000000, 429.000000)">
                <g id="Group-2" transform="translate(1.000000, 1.000000)">
                    <path d="M293.640034,76.3429231 C293.635718,76.3228656 293.631581,76.3033407 293.626725,76.2836383 C293.62043,76.2628709 293.613236,76.242636 293.605682,76.2222235 C293.601545,76.2112186 293.599027,76.2000361 293.594171,76.1890312 C293.591294,76.1833512 293.588776,76.1783812 293.585359,76.1727012 C293.576726,76.1515788 293.566114,76.1324089 293.554783,76.1130615 C293.545791,76.097264 293.537697,76.0812891 293.527446,76.0660242 C293.516295,76.0482742 293.502446,76.0314118 293.489856,76.0141944 C293.478166,75.9996394 293.467554,75.9854395 293.455684,75.9712395 C293.441116,75.9549096 293.424749,75.9396447 293.409282,75.9247347 C293.396692,75.9126648 293.384282,75.9000623 293.371153,75.8888799 C293.354426,75.8741474 293.335902,75.860835 293.317197,75.8477 C293.302808,75.8374051 293.289859,75.8274651 293.274751,75.8187677 C293.256047,75.8065202 293.235363,75.7960477 293.215579,75.7857528 C293.199213,75.7775878 293.184105,75.7692453 293.168458,75.7623229 C293.160544,75.7589504 293.15389,75.7546904 293.146696,75.7514954 C293.133386,75.7461704 293.118998,75.7433305 293.10461,75.7387155 C293.087524,75.732858 293.070438,75.727178 293.052812,75.7223855 C293.03069,75.7163506 293.008568,75.7119131 292.986446,75.7076531 C292.96918,75.7042806 292.952633,75.7012631 292.934468,75.6994881 C292.910907,75.6962931 292.887167,75.6955831 292.863786,75.6945181 C292.852275,75.6941631 292.842203,75.6923882 292.830333,75.6923882 L287.381128,75.725403 C286.925199,75.7284205 286.559916,76.0942466 286.562074,76.5427873 C286.565492,76.990973 286.936889,77.3527165 287.390121,77.349699 L290.853742,77.3282216 L280.930541,87.3087736 C280.730544,87.5086378 280.656085,87.7841167 280.708782,88.0397157 C280.740076,88.1928976 280.815975,88.339867 280.937556,88.4580816 C281.098884,88.6157009 281.310392,88.6932681 281.521181,88.6923806 C281.731609,88.6911381 281.941499,88.6109085 282.101568,88.4508041 L292.024589,78.4707846 L292.046351,81.8885334 C292.048869,82.3363641 292.418648,82.6986402 292.874037,82.6952677 C293.102092,82.6943802 293.307125,82.6019031 293.455504,82.4544012 C293.602445,82.3063668 293.69381,82.1029526 293.692371,81.8789485 L293.658919,76.4992999 C293.658919,76.4881175 293.656041,76.47729 293.656041,76.4657526 C293.654422,76.4439202 293.653343,76.4213777 293.650286,76.3991903 C293.648307,76.3798429 293.643991,76.361738 293.640034,76.3429231 Z" id="arrow" transform="translate(287.192388, 82.192388) rotate(45.000000) translate(-287.192388, -82.192388) "></path>
                </g>
            </g>
        </g>
    </g>
</svg>