<svg width="115" height="115" viewBox="0 0 115 115" fill="none" xmlns="http://www.w3.org/2000/svg">
<rect width="115" height="115" fill="white"/>
<path fill-rule="evenodd" clip-rule="evenodd" d="M29.4884 27.3687V36.5878C30.3658 37.0403 31.1031 37.7335 31.5957 38.5895C33.8122 42.4392 37.7173 50.9423 38.9817 64.6475C39.0588 65.4793 38.8896 66.2803 38.5316 66.979L40 87.7173L35.6095 87.9998L34.2958 69.4574L30.9654 69.9432C30.7034 69.9812 30.4405 69.9998 30.1795 69.9998C29.4775 69.9998 28.7892 69.8624 28.1476 69.5959L15.3985 88.9998L12 86.701L25.238 66.5529C25.1311 66.2463 25.0535 65.9274 25.0071 65.5995C24.4524 61.6777 22.6744 52.7088 17.731 48.9828L12.6382 56.2755L21 59.0042L19.6409 62.9998L10.5441 60.0316C9.42684 59.6657 8.5724 58.831 8.19679 57.74C7.82213 56.6489 7.98748 55.4783 8.64981 54.5266L15.1175 45.2651C15.1854 45.0595 15.2825 44.8619 15.4076 44.6788C17.6174 41.4715 21.3687 38.66 24.1262 36.8654C24.4758 36.6375 24.8495 36.4531 25.2384 36.3141V27.3687C25.2384 24.6688 24.242 22.0494 22.4343 19.995L13.4631 9.8007L16.6987 7.13281L25.67 17.3271C28.1322 20.1257 29.4884 23.6914 29.4884 27.3687ZM34.6057 65.1944L34.0055 65.2819L34 65.2823L34 65.2827L30.3351 65.8173C29.9801 65.8646 29.7295 65.7265 29.608 65.6375C29.4903 65.5503 29.2843 65.3566 29.2378 65.0285C28.45 59.4537 26.2373 49.9699 20.1347 45.5307C21.6516 43.8575 23.8462 42.061 26.4946 40.3369C26.8125 40.1301 27.122 40.1607 27.2786 40.1978C27.4599 40.2405 27.7086 40.3498 27.8728 40.6344C29.9203 44.1912 33.535 52.0908 34.7272 65.022C34.7358 65.1082 34.6817 65.1833 34.6057 65.1944ZM96.0622 27.3687V36.0915C95.3766 36.2195 94.7165 36.4802 94.1258 36.8654C91.3673 38.6609 87.617 41.4715 85.4129 44.6714C85.2856 44.8564 85.1869 45.0561 85.118 45.2642L78.6514 54.5257C77.9881 55.4764 77.8218 56.6479 78.1965 57.739C78.5721 58.831 79.4266 59.6657 80.5439 60.0316L89.6409 62.9998L91 59.0042L82.6389 56.2765L87.7309 48.9832C92.6725 52.7089 94.452 61.6778 95.0076 65.5976C95.1006 66.2591 95.3206 66.8833 95.6521 67.4447L83 86.701L86.3985 88.9998L98.973 69.8616C99.3663 69.9532 99.7708 69.9998 100.18 69.9998C100.44 69.9998 100.704 69.9812 100.966 69.9432L105.234 69.3203L105.286 69.3126L106.61 87.9998L111 87.7173L109 64.9959C108.999 64.8805 108.993 64.7643 108.982 64.6475C107.717 50.9423 103.812 42.4383 101.595 38.5895C101.266 38.0179 100.828 37.5189 100.312 37.1157V27.3687C100.312 23.6924 98.955 20.1266 96.4928 17.3271L87.5225 7.13281L84.2868 9.8007L93.2572 19.995C95.0658 22.0503 96.0622 24.6697 96.0622 27.3687ZM78.2054 30.0003C78.2054 27.3565 80.3557 25.2052 82.9995 25.2052C85.6433 25.2052 87.7946 27.3565 87.7946 30.0003C87.7946 32.644 85.6433 34.7944 82.9995 34.7944C80.3557 34.7944 78.2054 32.644 78.2054 30.0003ZM74 30.0003C74 34.9617 78.0372 38.9998 82.9995 38.9998C87.9628 38.9998 92 34.9617 92 30.0003C92 25.037 87.9628 20.9998 82.9995 20.9998C78.0372 20.9998 74 25.037 74 30.0003ZM90.1343 45.5307C96.2359 49.9699 98.4494 59.4528 99.2383 65.0275C99.2838 65.3566 99.4898 65.5503 99.6085 65.6375C99.729 65.7265 99.9824 65.8646 100.336 65.8173L104.605 65.1944C104.682 65.1833 104.736 65.1073 104.728 65.021C103.534 52.0908 99.9198 44.1912 97.8723 40.6344C97.7081 40.3498 97.4594 40.2405 97.2781 40.1978C97.1215 40.1607 96.812 40.1301 96.4941 40.3369C93.8448 42.061 91.6511 43.8575 90.1343 45.5307ZM8.20561 30.0003C8.20561 27.3565 10.3561 25.2052 13 25.2052C15.6439 25.2052 17.7944 27.3565 17.7944 30.0003C17.7944 32.644 15.6439 34.7944 13 34.7944C10.3561 34.7944 8.20561 32.644 8.20561 30.0003ZM4 30.0003C4 34.9617 8.03738 38.9998 13 38.9998C17.9626 38.9998 22 34.9617 22 30.0003C22 25.037 17.9626 20.9998 13 20.9998C8.03738 20.9998 4 25.037 4 30.0003ZM62.7567 54.1584V45.703C62.7567 42.9417 61.7619 40.2618 59.9571 38.1599L51 27.7293L54.2306 24.9998L63.1876 35.4304C65.6459 38.2937 67 41.9417 67 45.703V54.8889C67.6524 55.325 68.2018 55.9045 68.5948 56.5878C70.8103 60.4349 74.7164 68.9366 75.9817 82.6472C76.0588 83.4785 75.8896 84.2794 75.5315 84.9781L77 105.717L72.6095 106L71.2959 87.4583L67.9654 87.9432C67.7025 87.9812 67.4396 87.9998 67.1795 87.9998C66.7704 87.9998 66.3661 87.9532 65.9731 87.8617L53.3985 107L50 104.701L62.6518 85.4451C62.3205 84.8842 62.1006 84.2607 62.0071 83.6002C61.4524 79.6784 59.6746 70.7098 54.7319 66.9818L49.6386 74.2755L58 77.0042L56.641 80.9998L47.5446 78.0316C46.4265 77.6657 45.5721 76.831 45.1965 75.739C44.8218 74.647 44.9881 73.4764 45.6514 72.5257L52.1167 63.2667C52.1853 63.0585 52.2839 62.8587 52.4114 62.6737C54.6193 59.4662 58.3706 56.6564 61.1272 54.8635C61.6295 54.5373 62.1818 54.3006 62.7567 54.1584ZM71.0119 83.2815L71 83.2823L71.0001 83.2833L67.3352 83.8171C66.9858 83.8644 66.7295 83.7262 66.608 83.6372C66.4894 83.551 66.2844 83.3564 66.2378 83.0291C65.45 77.4531 63.2392 67.9697 57.1347 63.5293C58.6516 61.8542 60.8462 60.0576 63.4946 58.3361C63.8126 58.1294 64.123 58.16 64.2796 58.1971C64.4599 58.2388 64.7086 58.3491 64.871 58.6328H64.8719C66.9194 62.1879 70.5331 70.0861 71.7272 83.0217C71.7358 83.1079 71.6817 83.1839 71.6057 83.1951L71.0119 83.2815Z" fill="#E10528"/>
<path fill-rule="evenodd" clip-rule="evenodd" d="M50.0005 43.2056C47.3567 43.2056 45.2054 45.3561 45.2054 48C45.2054 50.6439 47.3567 52.7944 50.0005 52.7944C52.6443 52.7944 54.7946 50.6439 54.7946 48C54.7946 45.3561 52.6443 43.2056 50.0005 43.2056M50.0005 57C45.0372 57 41 52.9617 41 48C41 43.0374 45.0372 39 50.0005 39C54.9628 39 59 43.0374 59 48C59 52.9617 54.9628 57 50.0005 57" fill="#372F86"/>
</svg>
