<?xml version="1.0" encoding="UTF-8"?>
<svg width="30px" height="30px" viewBox="0 0 30 30" version="1.1" xmlns="http://www.w3.org/2000/svg" xmlns:xlink="http://www.w3.org/1999/xlink">
    <!-- Generator: sketchtool 53.2 (72643) - https://sketchapp.com -->
    <title>C38A1C59-97E0-4DB6-83E1-F5487A51C6C8</title>
    <desc>Created with sketchtool.</desc>
    <defs>
        <circle id="path-1" cx="15" cy="15" r="15"></circle>
    </defs>
    <g id="Page-1" stroke="none" stroke-width="1" fill="none" fill-rule="evenodd">
        <g id="1.5-UI-Style-Guide" transform="translate(-697.000000, -505.000000)">
            <g id="menu-copy" transform="translate(585.000000, 429.000000)">
                <g id="Group-2" transform="translate(1.000000, 1.000000)">
                    <g id="Group-28" transform="translate(111.000000, 75.000000)">
                        <mask id="mask-2" fill="white">
                            <use xlink:href="#path-1"></use>
                        </mask>
                        <use id="Mask" fill="#FFFFFF" xlink:href="#path-1"></use>
                        <g mask="url(#mask-2)">
                            <g transform="translate(5.000000, 8.000000)">
                                <path d="M10.4666571,4.04298318 C8.26272857,4.04298318 6.4698,5.76330093 6.4698,7.87797383 C6.4698,9.99264673 8.26272857,11.7131701 10.4666571,11.7131701 C12.6705857,11.7131701 14.4635143,9.99264673 14.4635143,7.87797383 C14.4635143,5.76330093 12.6705857,4.04298318 10.4666571,4.04298318 M10.4666571,12.6384037 C7.73087143,12.6384037 5.50551429,10.5029645 5.50551429,7.87797383 C5.50551429,5.25318879 7.73087143,3.11774953 10.4666571,3.11774953 C13.2024429,3.11774953 15.4278,5.25318879 15.4278,7.87797383 C15.4278,10.5029645 13.2024429,12.6384037 10.4666571,12.6384037" id="Fill-49" fill="#E10728"></path>
                                <path d="M10.6669286,14.6680991 C6.72642857,14.6680991 3.76735714,13.7922112 1.87178571,12.0644916 C0.394285714,10.7177626 0,9.2213514 0,8.54942617 L0,6.20755701 L0.8985,6.20755701 L0.8985,8.54942617 C0.8985,9.91322056 2.69314286,13.8057813 10.6669286,13.8057813 C14.3202857,13.8057813 16.1978571,12.8235944 17.2922143,12.0846411 C18.9687857,10.9529776 19.9305,9.23430467 19.9305,7.36923925 L19.9305,6.11503364 L20.8292143,6.11503364 L20.8292143,7.36923925 C20.8292143,9.51886542 19.7286429,11.4945477 17.8092857,12.7900804 C15.9113571,14.0712206 13.6416429,14.6680991 10.6669286,14.6680991" id="Fill-50" fill="#E10728"></path>
                                <path d="M9.32847857,9.24801869 C9.49369286,9.59570093 9.83012143,9.988 10.5076929,9.988 C11.1852643,9.988 11.5216929,9.59570093 11.6869071,9.24801869 L9.32847857,9.24801869 Z M10.5076929,10.9132336 C8.87590714,10.9132336 8.29562143,9.55293458 8.21676429,8.83371963 C8.20219286,8.70357009 8.24633571,8.57342056 8.33783571,8.47596262 C8.42933571,8.37850467 8.55940714,8.32278505 8.69612143,8.32278505 L12.3192643,8.32278505 C12.4559786,8.32278505 12.58605,8.37850467 12.67755,8.47596262 C12.76905,8.57342056 12.8131929,8.70357009 12.7986214,8.83371963 C12.7197643,9.55293458 12.1394786,10.9132336 10.5076929,10.9132336 L10.5076929,10.9132336 Z" id="Fill-51" fill="#343185"></path>
                                <polygon id="Fill-52" fill="#343185" points="4.23876429 5.02081121 1.72755 3.62967103 2.20969286 2.82821308 4.72090714 4.21955888"></polygon>
                                <polygon id="Fill-53" fill="#343185" points="10.0255286 1.50299065 10.9898143 1.50299065 10.9898143 -2.55795385e-13 10.0255286 -2.55795385e-13"></polygon>
                                <polygon id="Fill-54" fill="#343185" points="16.4877857 4.68519813 15.9525 3.91560935 18.2022857 2.47553458 18.7375714 3.24512336"></polygon>
                                <path d="M6.43497857,21.8162692 L5.47412143,21.7416336 C5.61319286,20.0918393 5.27655,15.0908486 4.92790714,13.633914 L5.86797857,13.4268673 C6.26569286,15.0898206 6.57105,20.2057458 6.43497857,21.8162692" id="Fill-55" fill="#E10728"></path>
                                <path d="M14.4855643,21.8162692 C14.3589214,20.3186243 14.8339929,14.7921009 15.1642071,13.2833533 L16.1079214,13.4733346 C15.7954929,14.9008673 15.3277071,20.3330168 15.4464214,21.7416336 L14.4855643,21.8162692 Z" id="Fill-56" fill="#E10728"></path>
                            </g>
                        </g>
                    </g>
                </g>
            </g>
        </g>
    </g>
</svg>