<svg width="115" height="115" viewBox="0 0 115 115" fill="none" xmlns="http://www.w3.org/2000/svg">
<rect width="115" height="115" fill="white"/>
<path fill-rule="evenodd" clip-rule="evenodd" d="M33.5 14.656C33.5 11.813 35.813 9.5 38.656 9.5H77.023C79.866 9.5 82.178 11.813 82.178 14.656V100.475C82.178 103.317 79.866 105.631 77.023 105.631H38.656C35.813 105.631 33.5 103.317 33.5 100.475V14.656ZM38.656 110.131H77.023C82.347 110.131 86.678 105.799 86.678 100.475V14.656C86.678 9.332 82.347 5 77.023 5H38.656C33.332 5 29 9.332 29 14.656V100.475C29 105.799 33.332 110.131 38.656 110.131ZM78 58.0001C78 69.0465 69.0464 78 58 78C46.9553 78 38 69.0465 38 58.0001C38 46.9548 46.9553 38 58 38C69.0464 38 78 46.9548 78 58.0001ZM54.7541 63.1274C54.6953 63.1872 54.5803 63.1725 54.54 63.0698C54.2925 62.3404 54.4555 61.4985 55.0284 60.9171C55.4287 60.511 55.9543 60.308 56.48 60.308C56.7068 60.308 56.934 60.3459 57.1507 60.4215C57.2635 60.4628 57.2832 60.565 57.2271 60.6218C57.1988 60.6507 54.7801 63.1013 54.7541 63.1274ZM59.2004 60.9171C59.3686 60.7465 59.4634 60.5146 59.4634 60.2735C59.4634 60.0319 59.3686 59.8003 59.2004 59.6295C57.7003 58.1072 55.2596 58.1072 53.7592 59.6295C52.2591 61.1512 52.2591 63.6277 53.7592 65.1493C54.4861 65.8865 55.4523 66.2927 56.48 66.2927C57.5076 66.2927 58.474 65.8865 59.2004 65.1493C59.5508 64.7937 59.5508 64.2171 59.2004 63.8622C58.8499 63.5064 58.282 63.5068 57.9316 63.8622C57.5438 64.2551 57.0284 64.4721 56.48 64.4721C56.325 64.4721 56.1729 64.4519 56.0246 64.4211C55.9487 64.4052 55.8877 64.2779 55.979 64.1852L59.2004 60.9171ZM45.8049 62.2542C45.8049 60.7155 47.1177 59.4634 48.7317 59.4634C50.3455 59.4634 51.6585 60.7155 51.6585 62.2542V65.4871C51.6585 65.9318 51.2763 66.2927 50.8049 66.2927C50.3333 66.2927 49.9511 65.9318 49.9511 65.4871V62.2542C49.9511 61.5924 49.4155 61.0741 48.7317 61.0741C48.0479 61.0741 47.5122 61.5924 47.5122 62.2542V65.4871C47.5122 65.9318 47.1301 66.2927 46.6584 66.2927C46.1871 66.2927 45.8049 65.9318 45.8049 65.4871V62.2542ZM48.7318 49.7073C47.1179 49.7073 45.8049 50.9592 45.8049 52.4979V55.731C45.8049 56.1757 46.1872 56.5366 46.6584 56.5366C47.1301 56.5366 47.5123 56.1757 47.5123 55.731V52.4979C47.5123 51.8361 48.0479 51.3177 48.7318 51.3177C49.4154 51.3177 49.9511 51.8361 49.9511 52.4979V55.731C49.9511 56.1757 50.3332 56.5366 50.805 56.5366C51.2764 56.5366 51.6585 56.1757 51.6585 55.731V52.4979C51.6585 50.9592 50.3454 49.7073 48.7318 49.7073ZM54.5401 54.2891C54.5803 54.3917 54.6953 54.4063 54.7541 54.3467L57.2272 51.8409C57.2831 51.7841 57.2635 51.6818 57.1507 51.6407C56.9341 51.5651 56.7068 51.5271 56.4799 51.5271C55.9544 51.5271 55.4286 51.7301 55.0284 52.136C54.4555 52.7175 54.2925 53.5596 54.5401 54.2891ZM59.4634 51.4925C59.4634 51.7337 59.3684 51.9654 59.2004 52.136C59.2004 52.136 56.0702 55.3119 55.9791 55.4046C55.8876 55.4973 55.9487 55.6244 56.0245 55.6403C56.1728 55.6713 56.325 55.6914 56.4799 55.6914C57.0284 55.6914 57.5439 55.4744 57.9317 55.0815C58.2821 54.7259 58.8498 54.7255 59.2004 55.0815C59.5506 55.4365 59.5506 56.0131 59.2004 56.3685C58.474 57.106 57.5075 57.5122 56.4799 57.5122C55.4525 57.5122 54.486 57.106 53.7592 56.3685C52.2591 54.8467 52.2591 52.3704 53.7592 50.8487C55.2597 49.3269 57.7004 49.3269 59.2004 50.8487C59.3684 51.0194 59.4634 51.2509 59.4634 51.4925ZM64.3415 55.6919C63.1934 55.6919 62.2594 54.7579 62.2594 53.6096C62.2594 52.4614 63.1934 51.5275 64.3415 51.5275C65.4895 51.5275 66.4235 52.4614 66.4235 53.6096C66.4235 54.7579 65.4895 55.6919 64.3415 55.6919ZM64.3415 49.7073C62.1897 49.7073 60.439 51.4578 60.439 53.6096C60.439 55.7615 62.1897 57.5122 64.3415 57.5122C66.4932 57.5122 68.2439 55.7615 68.2439 53.6096C68.2439 51.4578 66.4932 49.7073 64.3415 49.7073ZM67.1575 60.7139C67.1575 61.0829 67.468 61.2414 68.0665 61.4735C68.1035 61.4879 68.1418 61.5025 68.1812 61.5176C68.9753 61.8216 70.1951 62.2887 70.1951 63.8454C70.1951 64.494 69.9413 65.0518 69.4195 65.5514C68.904 66.0453 68.2259 66.2922 67.548 66.2927C66.8703 66.2927 66.1926 66.0453 65.6766 65.5514C65.3099 65.2005 65.3099 64.6315 65.6762 64.2806C66.0426 63.9299 66.6243 63.9411 67.0027 64.2802C67.185 64.4433 67.4378 64.5474 67.6337 64.5474C68.0734 64.5474 68.3499 64.2609 68.3499 63.8962C68.3499 63.6619 68.2298 63.4458 67.4277 63.1628L67.41 63.1565C66.6203 62.8783 65.3171 62.4191 65.3171 60.8211C65.3171 60.1897 65.5556 59.6546 66.0459 59.1851C67.0161 58.2553 68.5955 58.2553 69.5662 59.1853C69.9326 59.5361 69.9326 60.105 69.5662 60.4561C69.1996 60.8067 68.6061 60.807 68.2397 60.4561C68.1073 60.3296 67.9544 60.2015 67.7063 60.2015C67.3708 60.2015 67.1575 60.4175 67.1575 60.7139ZM63.1887 61.4735C62.5902 61.2414 62.2797 61.0829 62.2797 60.7139C62.2797 60.4175 62.4927 60.2015 62.8279 60.2015C63.0762 60.2015 63.2292 60.3296 63.3614 60.4561C63.7279 60.807 64.3218 60.8067 64.6882 60.4561C65.0544 60.105 65.0544 59.5361 64.6882 59.1853C63.7175 58.2553 62.138 58.2553 61.1678 59.1851C60.6775 59.6546 60.439 60.1897 60.439 60.8211C60.439 62.4193 61.7425 62.8784 62.5324 63.1566L62.5499 63.1628C63.3517 63.4458 63.4717 63.6619 63.4717 63.8962C63.4717 64.2609 63.1953 64.5474 62.7557 64.5474C62.5598 64.5474 62.3068 64.4433 62.1249 64.2802C61.746 63.9411 61.1645 63.9299 60.7982 64.2806C60.4318 64.6315 60.4318 65.2005 60.7986 65.5514C61.3145 66.0453 61.9922 66.2927 62.6701 66.2927C63.3478 66.2922 64.026 66.0453 64.5417 65.5514C65.0635 65.0518 65.3171 64.494 65.3171 63.8454C65.3171 62.2888 64.0974 61.8217 63.3035 61.5176C63.2866 61.5112 63.27 61.5048 63.2535 61.4985C63.2315 61.4901 63.2099 61.4817 63.1887 61.4735Z" fill="#E10528"/>
<path fill-rule="evenodd" clip-rule="evenodd" d="M61.492 18.0557H54.187V13.5557H61.492V18.0557ZM64.683 102.063H50.995V97.5627H64.683V102.063Z" fill="#372F86"/>
</svg>
