<svg width="115" height="115" viewBox="0 0 115 115" fill="none" xmlns="http://www.w3.org/2000/svg">
<rect width="115" height="115" fill="white"/>
<path fill-rule="evenodd" clip-rule="evenodd" d="M54.7263 28.7363C34.1373 28.7363 17.3863 45.4873 17.3863 66.0763C17.3863 86.6653 34.1373 103.416 54.7263 103.416C75.3153 103.416 92.0663 86.6653 92.0663 66.0763C92.0663 45.4873 75.3153 28.7363 54.7263 28.7363M54.7263 107.916C31.6563 107.916 12.8863 89.1463 12.8863 66.0763C12.8863 43.0063 31.6563 24.2363 54.7263 24.2363C77.7963 24.2363 96.5663 43.0063 96.5663 66.0763C96.5663 89.1463 77.7963 107.916 54.7263 107.916" fill="#E10528"/>
<path fill-rule="evenodd" clip-rule="evenodd" d="M85.5124 18.918C86.6174 19.869 87.4984 21.05 88.1924 22.336C88.8994 21.025 89.8004 19.823 90.9364 18.863C89.8174 17.917 88.9244 16.736 88.2234 15.447C87.6524 16.536 86.9354 17.568 86.0334 18.445C85.8644 18.61 85.6904 18.769 85.5124 18.918ZM90.4424 31.723H85.9424C85.9404 31.298 85.8244 21.335 79.2564 21.117C79.1624 21.116 79.0694 21.115 78.9744 21.112L79.0364 16.613C79.1354 16.613 79.2334 16.614 79.3294 16.617C80.7664 16.609 81.9324 16.153 82.8884 15.227C85.3744 12.817 85.9354 7.749 85.9424 6L90.4424 6.004C90.4444 6.433 90.5614 16.613 97.3484 16.613V21.113C90.5214 21.113 90.4424 31.616 90.4424 31.723ZM67.7511 59.4947C70.6451 59.4947 73.0021 61.8677 73.0251 61.8917L74.6411 60.3267L73.0171 61.8827L76.2651 58.7697C76.1181 58.6157 72.5921 54.9947 67.7511 54.9947C64.8281 54.9947 62.1281 56.2647 59.7281 58.7697L62.9761 61.8827C64.5081 60.2857 66.0611 59.5037 67.7221 59.4957C67.7321 59.4947 67.7411 59.4947 67.7511 59.4947ZM35.429 61.9091C40.181 57.1081 44.675 61.0751 45.529 61.9171L47.12 60.3261L45.521 61.9091L48.718 58.7431C48.571 58.5951 45.05 55.0931 40.229 55.0931C37.32 55.0931 34.63 56.3211 32.232 58.7431L35.429 61.9091ZM19.189 29.853H14.689V25.074H10V20.574H14.689V15.797H19.189V20.574H23.88V25.074H19.189V29.853ZM101.963 47.125H97.463V44.446H94.845V39.946H97.463V37.267H101.963V39.946H104.58V44.446H101.963V47.125ZM54.7263 90.0016C47.3483 90.0016 41.1953 85.4906 39.9343 79.5616H69.5183C68.2573 85.4906 62.1043 90.0016 54.7263 90.0016ZM35.1983 77.3116C35.1983 86.7906 43.9583 94.5016 54.7263 94.5016C65.4943 94.5016 74.2543 86.7906 74.2543 77.3116C74.2543 76.0696 73.2473 75.0616 72.0043 75.0616H37.4483C36.2053 75.0616 35.1983 76.0696 35.1983 77.3116Z" fill="#372F86"/>
</svg>
