<?xml version="1.0" encoding="utf-8"?>
<!-- Generator: Adobe Illustrator 21.0.0, SVG Export Plug-In . SVG Version: 6.00 Build 0)  -->
<svg version="1.1" id="Calque_1" xmlns="http://www.w3.org/2000/svg" xmlns:xlink="http://www.w3.org/1999/xlink" x="0px" y="0px"
	 viewBox="0 0 409.2 409.2" style="enable-background:new 0 0 409.2 409.2;" xml:space="preserve">
<style type="text/css">
	.st0{fill:#D71730;}
	.st1{fill:#FFFFFF;}
</style>
<g>
	<g>
		<path class="st0" d="M409.2,204.6c0,113-91.6,204.6-204.6,204.6C91.6,409.2,0,317.6,0,204.6C0,91.6,91.6,0,204.6,0
			C317.6,0,409.2,91.6,409.2,204.6z"/>
	</g>
	<g>
		<path class="st1" d="M220.2,236.4c1.7-1.7,2.6-3.9,2.6-6.2c0-2.3-0.9-4.6-2.6-6.2c-14.7-14.7-38.7-14.7-53.5,0
			c-14.7,14.7-14.7,38.7,0,53.5c7.1,7.1,16.6,11.1,26.7,11.1c10.1,0,19.6-3.9,26.7-11.1c3.4-3.4,3.4-9,0-12.5c-3.4-3.4-9-3.4-12.5,0
			c-3.8,3.8-8.9,5.9-14.3,5.9c-1.5,0-3-0.2-4.5-0.5c-0.7-0.2-1.3-1.4-0.4-2.3C189.5,267.1,220.2,236.4,220.2,236.4z M176.5,257.8
			c-0.6,0.6-1.7,0.4-2.1-0.6c-2.4-7.1-0.8-15.2,4.8-20.9c3.9-3.9,9.1-5.9,14.3-5.9c2.2,0,4.5,0.4,6.6,1.1c1.1,0.4,1.3,1.4,0.8,1.9
			C200.6,233.8,176.8,257.5,176.5,257.8z"/>
		<path class="st1" d="M114.6,212.8c-16.7,0-30.2,13.7-30.2,30.6v35.4c0,4.9,3.9,8.8,8.8,8.8c4.9,0,8.8-4,8.8-8.8v-35.4
			c0-7.2,5.5-12.9,12.6-12.9c7.1,0,12.6,5.7,12.6,12.9v35.4c0,4.9,3.9,8.8,8.8,8.8s8.8-4,8.8-8.8v-35.4
			C144.9,226.5,131.3,212.8,114.6,212.8z"/>
		<path class="st1" d="M114.7,120.1c-16.7,0-30.2,13.7-30.2,30.6v35.4c0,4.9,3.9,8.8,8.8,8.8c4.9,0,8.8-4,8.8-8.8v-35.4
			c0-7.2,5.5-12.9,12.6-12.9c7.1,0,12.6,5.7,12.6,12.9v35.4c0,4.9,3.9,8.8,8.8,8.8c4.9,0,8.8-4,8.8-8.8v-35.4
			C145,133.8,131.4,120.1,114.7,120.1z"/>
		<path class="st1" d="M220.3,143.7c1.7-1.7,2.6-3.9,2.6-6.2c0-2.3-0.9-4.6-2.6-6.2c-14.7-14.7-38.7-14.7-53.5,0
			c-14.7,14.7-14.7,38.7,0,53.5c7.1,7.1,16.6,11.1,26.7,11.1c10.1,0,19.6-3.9,26.7-11.1c3.4-3.4,3.4-9,0-12.5c-3.4-3.4-9-3.4-12.5,0
			c-3.8,3.8-8.9,5.9-14.3,5.9c-1.5,0-3-0.2-4.5-0.5c-0.7-0.2-1.3-1.4-0.4-2.3C189.6,174.4,220.3,143.7,220.3,143.7z M176.6,165.1
			c-0.6,0.6-1.7,0.4-2.1-0.6c-2.4-7.1-0.8-15.2,4.8-20.9c3.9-3.9,9.1-5.9,14.3-5.9c2.2,0,4.5,0.4,6.6,1.1c1.1,0.4,1.3,1.4,0.8,1.9
			C200.6,141.1,176.9,164.8,176.6,165.1z"/>
		<path class="st1" d="M269.1,120.1c-20.8,0-37.8,17-37.8,37.8c0,20.8,17,37.8,37.8,37.8c20.8,0,37.8-17,37.8-37.8
			C306.9,137.1,289.9,120.1,269.1,120.1z M269.1,178.1c-11.1,0-20.2-9-20.2-20.2c0-11.1,9-20.2,20.2-20.2c11.1,0,20.2,9,20.2,20.2
			C289.3,169,280.2,178.1,269.1,178.1z"/>
		<path class="st1" d="M311.2,241.8c-5.6-2.3-8.5-3.8-8.5-7.5c0-2.9,2-5,5.2-5c2.3,0,3.8,1.3,5,2.5c3.4,3.4,9,3.4,12.5,0
			c3.4-3.4,3.4-9,0-12.5c-9.1-9.1-24-9.1-33.1,0c-4.6,4.6-6.9,9.9-6.9,16.1c0,15.8,12.4,20.3,19.8,23c7.5,2.8,8.7,4.9,8.7,7.2
			c0,3.6-2.6,6.4-6.7,6.4c-1.8,0-4.2-1-5.9-2.6c-3.6-3.3-9-3.4-12.5,0c-3.4,3.4-3.4,9,0,12.5c4.8,4.8,11.2,7.3,17.6,7.3
			c6.4,0,12.7-2.4,17.6-7.3c4.9-4.9,7.3-10.4,7.3-16.7C331.2,249,318.6,244.8,311.2,241.8z"/>
		<path class="st1" d="M258.8,241.8c-5.6-2.3-8.5-3.8-8.5-7.5c0-2.9,2-5,5.2-5c2.3,0,3.8,1.3,5,2.5c3.4,3.4,9,3.4,12.5,0
			c3.4-3.4,3.4-9,0-12.5c-9.1-9.1-24-9.1-33.1,0c-4.6,4.6-6.9,9.9-6.9,16.1c0,15.8,12.4,20.3,19.8,23c7.5,2.8,8.7,4.9,8.7,7.2
			c0,3.6-2.6,6.4-6.7,6.4c-1.8,0-4.2-1-5.9-2.6c-3.6-3.3-9-3.4-12.5,0c-3.4,3.4-3.4,9,0,12.5c4.8,4.8,11.2,7.3,17.6,7.3
			c6.4,0,12.7-2.4,17.6-7.3c4.9-4.9,7.3-10.4,7.3-16.7C278.8,249,266.2,244.8,258.8,241.8z"/>
		<path class="st1" d="M339.5,280.6c0-1.1-0.6-1.4-1.7-1.4h-1.5c-0.3,0-0.5,0.2-0.5,0.5v3.5c0,0.4,0.2,0.5,0.5,0.5
			c0.3,0,0.5-0.2,0.5-0.5v-1.3h0.3l1.1,1.5c0.2,0.3,0.4,0.4,0.6,0.4c0.3,0,0.5-0.2,0.5-0.4c0-0.2,0-0.3-0.1-0.5l-0.8-1
			C338.9,281.9,339.5,281.5,339.5,280.6z M337.7,281.1h-0.9v-1h0.9c0.3,0,0.6,0.1,0.6,0.5C338.4,281,338.1,281.1,337.7,281.1z"/>
		<path class="st1" d="M337.5,277.2c-2.3,0-4.4,1.6-4.4,4.4c0,2.8,2.1,4.4,4.4,4.4c2.3,0,4.4-1.6,4.4-4.4
			C341.9,278.8,339.8,277.2,337.5,277.2z M337.5,285.1c-1.8,0-3.3-1.5-3.3-3.6c0-2.1,1.4-3.6,3.3-3.6c1.8,0,3.3,1.5,3.3,3.6
			C340.8,283.7,339.3,285.1,337.5,285.1z"/>
	</g>
</g>
</svg>
